<svg width="64" height="64" viewBox="0 0 64 64" fill="none" xmlns="http://www.w3.org/2000/svg">
<path fill-rule="evenodd" clip-rule="evenodd" d="M48.2538 62.9944C47.707 63.4772 46.8514 63.1897 46.6029 62.504C42.9726 52.4852 30.1064 49.7035 29.3683 40.5194C29.2932 39.5853 28.1403 38.9877 27.498 39.67C22.3615 45.1263 19.5147 52.6097 19.2061 62.2273C19.1812 63.0052 18.3298 63.4818 17.6882 63.0413C11.5246 58.8086 8 52.8264 8 44.7045C8 29.8703 26.2276 16.6412 26.3723 2.3006C26.3811 1.4257 27.3731 0.870523 28.0016 1.47923C36.1487 9.36984 36.7781 26.0437 40.5552 33.5744C40.9184 34.2985 41.9219 34.1672 42.2711 33.4362C43.2473 31.3925 44.3857 29.9484 44.7379 27.8182C44.8881 26.91 46.0231 26.3597 46.6517 27.0321C51.4324 32.1455 56 40.3791 56 47.7525C56 54.2413 52.4226 59.3129 48.2538 62.9944Z" fill="#FF204E"/>
</svg>
